<?xml version="1.0" encoding="UTF-8" standalone="no"?>
<!DOCTYPE svg PUBLIC "-//W3C//DTD SVG 1.1//EN"
 "http://www.w3.org/Graphics/SVG/1.1/DTD/svg11.dtd">
<!-- Generated by graphviz version 2.40.1 (20161225.0304)
 -->
<!-- Title: Dependency Graph Pages: 1 -->
<svg width="343pt" height="476pt"
 viewBox="0.00 0.00 343.34 476.00" xmlns="http://www.w3.org/2000/svg" xmlns:xlink="http://www.w3.org/1999/xlink">
<g id="graph0" class="graph" transform="scale(1 1) rotate(0) translate(4 472)">
<title>Dependency Graph</title>
<polygon fill="#ffffff" stroke="transparent" points="-4,4 -4,-472 339.338,-472 339.338,4 -4,4"/>
<!-- main.BuildGrossPrice [1] -->
<g id="node1" class="node">
<title>main.BuildGrossPrice [1]</title>
<ellipse fill="none" stroke="#000000" cx="212.8009" cy="-378" rx="110.0295" ry="18"/>
<text text-anchor="middle" x="212.8009" y="-373.8" font-family="Times,serif" font-size="14.00" fill="#ff0000">main.BuildGrossPrice [1]</text>
</g>
<!-- main.GrossPrice -->
<g id="node2" class="node">
<title>main.GrossPrice</title>
<ellipse fill="none" stroke="#000000" cx="212.8009" cy="-306" rx="75.2557" ry="18"/>
<text text-anchor="middle" x="212.8009" y="-301.8" font-family="Times,serif" font-size="14.00" fill="#0000ff">main.GrossPrice</text>
</g>
<!-- main.BuildGrossPrice [1]&#45;&gt;main.GrossPrice -->
<g id="edge1" class="edge">
<title>main.BuildGrossPrice [1]&#45;&gt;main.GrossPrice</title>
<path fill="none" stroke="#000000" d="M212.8009,-359.8314C212.8009,-352.131 212.8009,-342.9743 212.8009,-334.4166"/>
<polygon fill="#000000" stroke="#000000" points="216.301,-334.4132 212.8009,-324.4133 209.301,-334.4133 216.301,-334.4132"/>
</g>
<!-- main.BuildPriceAdjustment [2] -->
<g id="node4" class="node">
<title>main.BuildPriceAdjustment [2]</title>
<ellipse fill="none" stroke="#000000" cx="132.8009" cy="-234" rx="132.6021" ry="18"/>
<text text-anchor="middle" x="132.8009" y="-229.8" font-family="Times,serif" font-size="14.00" fill="#ff0000">main.BuildPriceAdjustment [2]</text>
</g>
<!-- main.GrossPrice&#45;&gt;main.BuildPriceAdjustment [2] -->
<g id="edge4" class="edge">
<title>main.GrossPrice&#45;&gt;main.BuildPriceAdjustment [2]</title>
<path fill="none" stroke="#000000" d="M193.4352,-288.5708C183.5371,-279.6625 171.3177,-268.6651 160.4478,-258.8822"/>
<polygon fill="#000000" stroke="#000000" points="162.5982,-256.1087 152.8238,-252.0206 157.9154,-261.3118 162.5982,-256.1087"/>
</g>
<!-- main.BuildAppResponse [3] -->
<g id="node6" class="node">
<title>main.BuildAppResponse [3]</title>
<ellipse fill="none" stroke="#000000" cx="213.8009" cy="-90" rx="121.5741" ry="18"/>
<text text-anchor="middle" x="213.8009" y="-85.8" font-family="Times,serif" font-size="14.00" fill="#ff0000">main.BuildAppResponse [3]</text>
</g>
<!-- main.GrossPrice&#45;&gt;main.BuildAppResponse [3] -->
<g id="edge6" class="edge">
<title>main.GrossPrice&#45;&gt;main.BuildAppResponse [3]</title>
<path fill="none" stroke="#000000" d="M241.3435,-289.2068C254.1055,-280.001 267.8234,-267.3303 274.8009,-252 294.9301,-207.7744 279.2764,-187.5877 257.8009,-144 252.8596,-133.9708 245.7486,-124.1426 238.6795,-115.6782"/>
<polygon fill="#000000" stroke="#000000" points="241.2025,-113.2463 231.987,-108.0188 235.9312,-117.8522 241.2025,-113.2463"/>
</g>
<!-- main.AppRequest -->
<g id="node3" class="node">
<title>main.AppRequest</title>
<ellipse fill="none" stroke="#000000" cx="212.8009" cy="-450" rx="80.4998" ry="18"/>
<text text-anchor="middle" x="212.8009" y="-445.8" font-family="Times,serif" font-size="14.00" fill="#0000ff">main.AppRequest</text>
</g>
<!-- main.AppRequest&#45;&gt;main.BuildGrossPrice [1] -->
<g id="edge2" class="edge">
<title>main.AppRequest&#45;&gt;main.BuildGrossPrice [1]</title>
<path fill="none" stroke="#000000" d="M212.8009,-431.8314C212.8009,-424.131 212.8009,-414.9743 212.8009,-406.4166"/>
<polygon fill="#000000" stroke="#000000" points="216.301,-406.4132 212.8009,-396.4133 209.301,-406.4133 216.301,-406.4132"/>
</g>
<!-- main.PriceAdjustment -->
<g id="node5" class="node">
<title>main.PriceAdjustment</title>
<ellipse fill="none" stroke="#000000" cx="150.8009" cy="-162" rx="97.8285" ry="18"/>
<text text-anchor="middle" x="150.8009" y="-157.8" font-family="Times,serif" font-size="14.00" fill="#0000ff">main.PriceAdjustment</text>
</g>
<!-- main.BuildPriceAdjustment [2]&#45;&gt;main.PriceAdjustment -->
<g id="edge3" class="edge">
<title>main.BuildPriceAdjustment [2]&#45;&gt;main.PriceAdjustment</title>
<path fill="none" stroke="#000000" d="M137.3431,-215.8314C139.2893,-208.0463 141.6077,-198.7729 143.7672,-190.1347"/>
<polygon fill="#000000" stroke="#000000" points="147.1677,-190.9636 146.1976,-180.4133 140.3767,-189.2658 147.1677,-190.9636"/>
</g>
<!-- main.PriceAdjustment&#45;&gt;main.BuildAppResponse [3] -->
<g id="edge7" class="edge">
<title>main.PriceAdjustment&#45;&gt;main.BuildAppResponse [3]</title>
<path fill="none" stroke="#000000" d="M166.374,-144.2022C173.8892,-135.6134 183.0459,-125.1486 191.3019,-115.7131"/>
<polygon fill="#000000" stroke="#000000" points="194.0184,-117.9237 197.9694,-108.0931 188.7503,-113.3141 194.0184,-117.9237"/>
</g>
<!-- main.AppResponse -->
<g id="node7" class="node">
<title>main.AppResponse</title>
<ellipse fill="none" stroke="#000000" cx="213.8009" cy="-18" rx="86.3007" ry="18"/>
<text text-anchor="middle" x="213.8009" y="-13.8" font-family="Times,serif" font-size="14.00" fill="#0000ff">main.AppResponse</text>
</g>
<!-- main.BuildAppResponse [3]&#45;&gt;main.AppResponse -->
<g id="edge5" class="edge">
<title>main.BuildAppResponse [3]&#45;&gt;main.AppResponse</title>
<path fill="none" stroke="#000000" d="M213.8009,-71.8314C213.8009,-64.131 213.8009,-54.9743 213.8009,-46.4166"/>
<polygon fill="#000000" stroke="#000000" points="217.301,-46.4132 213.8009,-36.4133 210.301,-46.4133 217.301,-46.4132"/>
</g>
</g>
</svg>
